<svg xmlns="http://www.w3.org/2000/svg" viewBox="0 0 1866.37 480.48"><defs><style>.cls-1{fill:#66bc47;}.cls-2{fill:#010101;}</style></defs><title>sjk-logo-final_4</title><g id="Layer_2" data-name="Layer 2"><g id="Layer_1-2" data-name="Layer 1"><path class="cls-1" d="M444.23,106.73S309.78,322.26,126.08,401.28c0,0-71.84-268.89,390-401.28,0,0-42.71,444.88-347.8,425.07-6.57-.43-16.58-1.86-23.28-4.27,0,0,17.27-7,40.28-22.19C252,354.56,389.29,250.26,444.23,106.73Z"/><path class="cls-1" d="M.66,476.83l105.76-55.25s6.5-4.21,9.56,1.27c3.15,5.64-2.61,8.82-2.61,8.82L0,480.48Z"/><path class="cls-2" d="M551.58,262c12,7.2,28.4,13.8,42.2,13.8,10.8,0,13.8-3,13.8-7.2,0-5-6.4-7.8-15.8-9.6-23.4-4.4-62.6-9.2-62.6-46,0-37.8,35-48.4,61.6-48.4,23,0,42.6,7.2,58.2,20,3.2,2.8,3.4,6.2,1,9.8l-13.2,19.2c-2.6,3.8-6,4.2-9.8,2-11.6-7.2-23.8-11.8-37.2-11.8-7.2,0-10.6,2.8-10.6,7.2,0,5,7.2,7.6,18.6,9.2,26.6,4,60,8.8,60,45.8,0,33.2-25.4,49.4-61.6,49.4-28,0-48.4-9-66.6-23.2-3.4-2.6-3.8-6.2-1.2-9.8l13.6-18.6Q545.88,258.43,551.58,262Z"/><path class="cls-2" d="M775.38,166.63h36.4c4.4,0,7,2.6,7,7V306c0,4.4-2.6,7-7,7h-36.4c-4.4,0-7-2.6-7-7v-44.8h-37V306c0,4.4-2.6,7-7,7h-36.6c-4.4,0-7-2.6-7-7V173.63c0-4.4,2.6-7,7-7h36.6c4.4,0,7,2.6,7,7v48.2h37v-48.2C768.38,169.23,771,166.63,775.38,166.63Z"/><path class="cls-2" d="M902.58,173.63V306c0,4.4-2.6,7-7,7h-36c-4.4,0-7-2.6-7-7V173.63c0-4.4,2.6-7,7-7h36C900,166.63,902.58,169.23,902.58,173.63Z"/><path class="cls-2" d="M1065.37,313h-9a11.76,11.76,0,0,1-8.6-3.4l-63-57.8V306c0,4.4-2.6,7-7,7h-36c-4.4,0-7-2.6-7-7V173.63c0-4.4,2.6-7,7-7h8.8a11.76,11.76,0,0,1,8.6,3.4l63.2,58.2v-54.6c0-4.4,2.6-7,7-7h36c4.41,0,7,2.6,7,7V306C1072.37,310.43,1069.78,313,1065.37,313Z"/><path class="cls-2" d="M1168.37,166.63h36.2c4.4,0,7,2.6,7,7v87.2c0,17.4-6.2,31-16.8,40.4s-25.8,14.2-43.6,14.2c-31.59-.2-49.59-14.2-57.59-39-1.6-4.4,0-7.2,3.4-8.2l5.2-1.4c8-2,16-4,22.8-5.8a13.43,13.43,0,0,0,1.4-.4c4.4-1.2,7,.6,8.8,4.8,2.6,5.8,6.8,9.8,12.8,9.8,5.59,0,9-2.2,11-4.8,2-2.4,2.39-5.8,2.39-8.2v-88.6C1161.37,169.23,1164,166.63,1168.37,166.63Z"/><path class="cls-2" d="M1230.18,175c-3-4.8-.8-8.4,4.8-8.4h41.39a8.53,8.53,0,0,1,8.2,5l22.6,41.8,21.8-41.8c1.8-3.6,4.4-5,8.2-5h42.6c5.6,0,7.6,3.6,4.6,8.4L1332,257v49c0,4.4-2.6,7-7,7h-36.4c-4.4,0-7-2.6-7-7V257Z"/><path class="cls-2" d="M1404.57,252.23v-78.6c0-4.4,2.6-7,7-7h36c4.4,0,7,2.6,7,7V254c0,15.2,11.2,19,18,19,7,0,17.8-3.8,17.8-19v-80.4c0-4.4,2.6-7,7-7h36.2c4.4,0,7,2.6,7,7v78.6c0,38.6-26.8,63-68,63C1431.77,315.23,1404.57,290.83,1404.57,252.23Z"/><path class="cls-2" d="M1710.57,313h-42.2a10.83,10.83,0,0,1-8.6-3.8l-35-37.8V306c0,4.4-2.6,7-7,7h-36.4c-4.4,0-7-2.6-7-7V173.63c0-4.4,2.6-7,7-7h36.4c4.4,0,7,2.6,7,7v38l33.8-41a10.17,10.17,0,0,1,8.6-4h39.2c6,0,7.8,4,4,8.6l-55.2,66.2,59.2,63C1718.57,308.83,1716.77,313,1710.57,313Z"/><path class="cls-2" d="M1730.37,252.23v-78.6c0-4.4,2.6-7,7-7h36c4.4,0,7,2.6,7,7V254c0,15.2,11.2,19,18,19,7,0,17.8-3.8,17.8-19v-80.4c0-4.4,2.6-7,7-7h36.2c4.4,0,7,2.6,7,7v78.6c0,38.6-26.8,63-68,63C1757.57,315.23,1730.37,290.83,1730.37,252.23Z"/></g></g></svg>